<mxfile host="app.diagrams.net" modified="2023-08-10T02:24:37.372Z" agent="Mozilla/5.0 (Windows NT 10.0; Win64; x64) AppleWebKit/537.36 (KHTML, like Gecko) Chrome/115.0.0.0 Safari/537.36" version="21.6.7" etag="Ay613jlqxmrwUf_7X1ov" type="github">
  <diagram name="Page-1" id="MGmhC4N8ZRcKRyL2l3V4">
    <mxGraphModel>
      <root>
        <mxCell id="0" />
        <mxCell id="1" parent="0" />
      </root>
    </mxGraphModel>
  </diagram>
</mxfile>
